Coordinates
version=1
nRows=11
nColumns=63
inDegrees=yes

Units are S.I. units (second, meters, Newtons, ...)
If the header above contains a line with 'inDegrees', this indicates whether rotational values are in degrees (yes) or radians (no).

endheader
time	pelvis_tilt	pelvis_list	pelvis_rotation	pelvis_tx	pelvis_ty	pelvis_tz	hip_flexion_r	hip_adduction_r	hip_rotation_r	knee_angle_r	knee_angle_r_beta	ankle_angle_r	subtalar_angle_r	mtp_angle_r	hip_flexion_l	hip_adduction_l	hip_rotation_l	knee_angle_l	knee_angle_l_beta	ankle_angle_l	subtalar_angle_l	mtp_angle_l	L5_S1_Flex_Ext	L5_S1_Lat_Bending	L5_S1_axial_rotation	L4_L5_Flex_Ext	L4_L5_Lat_Bending	L4_L5_axial_rotation	L3_L4_Flex_Ext	L3_L4_Lat_Bending	L3_L4_axial_rotation	L2_L3_Flex_Ext	L2_L3_Lat_Bending	L2_L3_axial_rotation	L1_L2_Flex_Ext	L1_L2_Lat_Bending	L1_L2_axial_rotation	L1_T12_Flex_Ext	L1_T12_Lat_Bending	L1_T12_axial_rotation	Abs_r3	Abs_r2	Abs_r1	Abs_t1	Abs_t2	neck_flexion	neck_bending	neck_rotation	arm_flex_r	arm_add_r	arm_rot_r	elbow_flex_r	pro_sup_r	wrist_flex_r	wrist_dev_r	arm_flex_l	arm_add_l	arm_rot_l	elbow_flex_l	pro_sup_l	wrist_flex_l	wrist_dev_l
0.000000	-1.642509	-3.624840	87.882389	-0.091619	0.755584	0.730829	7.862271	-4.603323	-13.559728	12.881656	0.224827	32.088949	17.466871	0.000000	9.327558	1.110669	-16.579003	13.356240	0.233110	33.637702	16.806880	0.000000	0.117564	-0.442500	1.748846	0.218329	-0.588525	1.858148	0.193146	-1.075895	1.858148	0.134364	-1.075895	1.530240	0.109170	-0.902346	1.420937	0.067176	-0.685433	1.311634	0.839750	-5.005650	9.726555	0.000000	0.000000	22.216338	-2.896064	-10.643203	8.022138	-11.081145	50.035548	49.893359	87.985578	-4.371498	1.027808	16.851356	-11.989317	68.769667	48.736105	76.538201	-11.061293	3.337025
0.025641	-1.678136	-3.572919	88.027158	-0.091960	0.754625	0.729339	7.493805	-4.684555	-13.939808	12.679823	0.221305	31.841401	17.288862	0.000000	9.098279	1.243065	-15.997403	13.259040	0.231414	33.651462	16.429306	0.000000	0.140144	-0.464049	1.865070	0.260262	-0.617186	1.981637	0.230243	-1.128290	1.981637	0.160171	-1.128290	1.631936	0.130138	-0.946290	1.515369	0.080079	-0.718813	1.398802	1.001038	-5.249420	10.372959	0.000000	0.000000	22.358218	-3.319929	-12.062017	6.999334	-11.064909	47.664493	50.221639	87.808956	-7.488299	1.285150	17.625534	-11.622902	70.902366	47.719304	78.914544	-10.769357	3.164000
0.051282	-1.679539	-3.527924	88.156976	-0.092263	0.753868	0.728122	7.193684	-4.727780	-14.283007	12.531320	0.218713	31.652015	17.156370	0.000000	8.901336	1.325475	-15.525882	13.167168	0.229810	33.682917	16.145664	0.000000	0.157851	-0.477788	1.959442	0.293145	-0.635458	2.081907	0.259333	-1.161694	2.081907	0.180408	-1.161694	1.714511	0.146580	-0.974306	1.592046	0.090196	-0.740094	1.469581	1.127513	-5.404836	10.897826	0.000000	0.000000	22.521445	-3.675927	-13.162807	6.128905	-11.049896	45.799267	50.584631	87.492252	-10.136148	1.211679	18.197522	-11.348394	72.474478	47.112639	80.605435	-10.697720	3.106896
0.076923	-1.652366	-3.489728	88.271936	-0.092531	0.753291	0.727150	6.955511	-4.738747	-14.590286	12.429804	0.216941	31.514827	17.063426	0.000000	8.734039	1.365406	-15.152796	13.079528	0.228281	33.728858	15.943298	0.000000	0.171221	-0.484767	2.034065	0.317975	-0.644740	2.161194	0.281300	-1.178663	2.161194	0.195689	-1.178663	1.779807	0.158996	-0.988537	1.652678	0.097836	-0.750904	1.525549	1.223017	-5.483782	11.312861	0.000000	0.000000	22.705221	-3.972666	-13.976905	5.402206	-11.032458	44.377208	50.962700	87.051055	-12.337264	0.864673	18.587695	-11.153137	73.541057	46.845959	81.651826	-10.801940	3.139743
0.102564	-1.602265	-3.458200	88.372134	-0.092767	0.752871	0.726397	6.772885	-4.723208	-14.862604	12.368930	0.215879	31.423872	17.004059	0.000000	8.593696	1.370368	-14.866500	12.995025	0.226806	33.786076	15.809555	0.000000	0.180794	-0.486037	2.091046	0.335752	-0.646429	2.221736	0.297026	-1.181750	2.221736	0.206629	-1.181750	1.829665	0.167885	-0.991127	1.698975	0.103306	-0.752871	1.568285	1.291392	-5.498148	11.629771	0.000000	0.000000	22.908750	-4.218749	-14.535639	4.810591	-11.008944	43.335650	51.336210	86.500957	-14.113867	0.301411	18.816425	-11.024477	74.157154	46.849111	82.094672	-11.037572	3.236572
0.128205	-1.534884	-3.433214	88.457663	-0.092976	0.752584	0.725838	6.639407	-4.686912	-15.100918	12.342356	0.215415	31.373187	16.972299	0.000000	8.477617	1.347870	-14.655350	12.912563	0.225367	33.851361	15.731781	0.000000	0.187106	-0.482649	2.132489	0.347474	-0.641923	2.265769	0.307396	-1.173512	2.265769	0.213843	-1.173512	1.865927	0.173747	-0.984217	1.732647	0.106912	-0.747623	1.599366	1.336479	-5.459819	11.860262	0.000000	0.000000	23.131235	-4.422784	-14.870340	4.345414	-10.975704	42.611933	51.685526	85.857547	-15.488178	-0.420828	18.904089	-10.949757	74.377824	47.051946	81.974929	-11.360174	3.371411
0.153846	-1.455873	-3.414639	88.528617	-0.093160	0.752408	0.725446	6.548679	-4.635609	-15.306190	12.343738	0.215439	31.356808	16.962176	0.000000	8.383111	1.305420	-14.507700	12.831046	0.223944	33.921505	15.697320	0.000000	0.190695	-0.475653	2.160498	0.354141	-0.632619	2.295529	0.313294	-1.156503	2.295529	0.217946	-1.156503	1.890436	0.177080	-0.969952	1.755404	0.108963	-0.736787	1.620373	1.362119	-5.380682	12.016041	0.000000	0.000000	23.371882	-4.593376	-15.012338	3.998030	-10.929089	42.143393	51.991012	85.136417	-16.482416	-1.244765	18.871060	-10.916323	74.258119	47.384311	81.333550	-11.725301	3.518291
0.179487	-1.370879	-3.402348	88.585090	-0.093323	0.752321	0.725195	6.494301	-4.575049	-15.479377	12.366733	0.215840	31.368770	16.967720	0.000000	8.307486	1.250526	-14.411907	12.749379	0.222519	33.993298	15.693520	0.000000	0.192100	-0.466101	2.177179	0.356750	-0.619914	2.313252	0.315602	-1.133277	2.313252	0.219552	-1.133277	1.905031	0.178384	-0.950473	1.768958	0.109766	-0.721990	1.632884	1.372154	-5.272624	12.108814	0.000000	0.000000	23.629892	-4.739130	-14.992963	3.759793	-10.865449	41.867366	52.233034	84.353157	-17.118802	-2.113122	18.737713	-10.911520	73.853092	47.776055	80.211489	-12.088510	3.651241
0.205128	-1.285551	-3.396211	88.627177	-0.093468	0.752299	0.725058	6.469873	-4.510981	-15.621438	12.404996	0.216508	31.403110	16.982960	0.000000	8.248051	1.190698	-14.356324	12.666467	0.221072	34.063531	15.707724	0.000000	0.191859	-0.455043	2.184636	0.356300	-0.605207	2.321176	0.315204	-1.106390	2.321176	0.219275	-1.106390	1.911556	0.178160	-0.927923	1.775017	0.109628	-0.704861	1.638477	1.370426	-5.147532	12.150289	0.000000	0.000000	23.904470	-4.868653	-14.843544	3.622058	-10.781133	41.721191	52.391956	83.523357	-17.419555	-2.968619	18.524421	-10.922692	73.217795	48.157027	78.649703	-12.405358	3.744292
0.230769	-1.205536	-3.396100	88.654971	-0.093600	0.752320	0.725011	6.468997	-4.449157	-15.733334	12.452185	0.217332	31.453863	17.001926	0.000000	8.202116	1.133444	-14.329309	12.581213	0.219584	34.128994	15.727280	0.000000	0.190508	-0.443529	2.184974	0.353792	-0.589894	2.321535	0.312985	-1.078397	2.321535	0.217731	-1.078397	1.911852	0.176905	-0.904445	1.775292	0.108856	-0.687027	1.638731	1.360776	-5.017293	12.152171	0.000000	0.000000	24.194819	-4.990549	-14.595413	3.576180	-10.672493	41.642203	52.448142	82.662608	-17.406897	-3.753977	18.251559	-10.937185	72.407281	48.457075	76.689143	-12.631401	3.771473
0.256410	-1.136485	-3.401885	88.668567	-0.093721	0.752360	0.725027	6.485273	-4.395325	-15.816022	12.501957	0.218200	31.515065	17.018648	0.000000	8.166989	1.086273	-14.319215	12.492522	0.218036	34.186479	15.739533	0.000000	0.188585	-0.432612	2.180299	0.350222	-0.575374	2.316567	0.309827	-1.051853	2.316567	0.215534	-1.051853	1.907761	0.175120	-0.882182	1.771493	0.107758	-0.670116	1.635224	1.347046	-4.893792	12.126168	0.000000	0.000000	24.500142	-5.113425	-14.279898	3.613512	-10.535878	41.567741	52.381957	81.786500	-17.103046	-4.411918	17.939503	-10.942342	71.476603	48.606048	74.370767	-12.722196	3.706815
